<svg width="64" height="64" viewBox="0 0 64 64" xmlns="http://www.w3.org/2000/svg">
  <defs>
    <linearGradient id="grad" x1="0%" y1="0%" x2="100%" y2="100%">
      <stop offset="0%" style="stop-color:#4F46E5;stop-opacity:1" />
      <stop offset="100%" style="stop-color:#7C3AED;stop-opacity:1" />
    </linearGradient>
  </defs>
  
  <!-- Background circle -->
  <circle cx="32" cy="32" r="30" fill="url(#grad)" stroke="#1F2937" stroke-width="2"/>
  
  <!-- Kommo+ Icon -->
  <g fill="white">
    <!-- K letter -->
    <path d="M12 20 L12 44 L16 44 L16 33 L22 44 L27 44 L20 32 L26 20 L21 20 L16 29 L16 20 Z"/>
    
    <!-- + symbol -->
    <path d="M48 28 L52 28 L52 32 L56 32 L56 36 L52 36 L52 40 L48 40 L48 36 L44 36 L44 32 L48 32 Z"/>
    
    <!-- Connection dots -->
    <circle cx="35" cy="24" r="2"/>
    <circle cx="38" cy="28" r="2"/>
    <circle cx="35" cy="32" r="2"/>
    <circle cx="38" cy="36" r="2"/>
  </g>
</svg>
